<mxfile host="app.diagrams.net" modified="2023-12-04T20:35:54.717Z" agent="Mozilla/5.0 (Windows NT 10.0; Win64; x64) AppleWebKit/537.36 (KHTML, like Gecko) Chrome/119.0.0.0 Safari/537.36" version="22.1.5" etag="Y8xVUEmdnJbImne5F5H7" type="github">
  <diagram name="페이지-1" id="dRaRnJiz6gEALZentUmh">
    <mxGraphModel>
      <root>
        <mxCell id="0" />
        <mxCell id="1" parent="0" />
      </root>
    </mxGraphModel>
  </diagram>
</mxfile>
